<svg xmlns="http://www.w3.org/2000/svg" xmlns:xlink="http://www.w3.org/1999/xlink" version="1.1" viewBox="-4 -189 882 1008">
  <g transform="matrix(1 0 0 -1 0 819)">
   <path fill="currentColor" d="M882 109c0 -16 -6 -27 -18 -37c-4 -14 -6 -38 -6 -71c0 -34 2 -57 6 -71c12 -10 18 -22 18 -35v-32c0 -14 -4 -25 -14 -35s-21 -14 -35 -14h-646c-53 0 -98 18 -136 55c-37 37 -55 83 -55 136v630c0 53 18 98 55 136c38 37 83 55 136 55h646c14 0 25 -4 35 -14 s14 -22 14 -35v-668zM252 560v-39c0 -2 2 -4 4 -6s4 -4 6 -4h417c2 0 4 2 6 4s4 4 4 6v39c0 2 -2 4 -4 6s-4 4 -6 4h-417c-2 0 -4 -2 -6 -4s-4 -4 -4 -6zM252 434v-39c0 -2 2 -4 4 -6s4 -4 6 -4h417c2 0 4 2 6 4s4 4 4 6v39c0 2 -2 4 -4 6s-4 4 -6 4h-417c-2 0 -4 -2 -6 -4 s-4 -4 -4 -6zM750 -58c-2 18 -2 39 -2 65c0 25 0 47 2 65h-561c-18 0 -33 -6 -45 -18s-18 -27 -18 -45s6 -34 18 -45c12 -12 25 -18 43 -18z"/>
  </g>
</svg>