<svg xmlns="http://www.w3.org/2000/svg" xmlns:xlink="http://www.w3.org/1999/xlink" version="1.1" viewBox="-6 -193 1008 1008">
  <g transform="matrix(1 0 0 -1 0 819)">
   <path fill="currentColor" d="M900 141l108 -189l-14 -114c-1 -10 -8 -18 -17 -24c-10 -6 -20 -6 -30 -2l-106 45l-109 187c57 22 113 53 164 95zM980 324h-2c-51 -81 -120 -146 -204 -193c-85 -47 -175 -71 -272 -71c-69 0 -136 12 -201 37l-140 -242l-106 -45c-10 -4 -20 -4 -29 2 c-10 6 -17 14 -18 24l-14 114l140 244c-43 37 -81 79 -110 124c-4 6 -6 14 -4 24c2 9 6 15 13 19l56 32c6 6 13 8 21 6s14 -6 20 -12c18 -28 39 -53 65 -77l134 232c-16 30 -24 59 -24 91c0 53 18 98 55 136c38 37 83 55 136 55s99 -18 136 -55c37 -38 55 -83 55 -136 c0 -32 -8 -61 -24 -91l103 -175c-45 -47 -101 -79 -164 -96l-100 173h-8l-132 -228c46 -16 91 -24 136 -24c75 0 146 18 211 53c65 36 118 85 159 146c6 8 12 12 20 14s16 0 22 -4l55 -30c8 -6 13 -14 15 -22c2 -7 2 -15 -2 -23zM498 692c-18 0 -33 -6 -45 -18 s-18 -27 -18 -45s6 -33 18 -45s25 -18 43 -18s32 6 43 18c12 12 18 25 18 43s-6 32 -18 43c-11 12 -27 18 -45 18z"/>
  </g>
</svg>