<svg xmlns="http://www.w3.org/2000/svg" xmlns:xlink="http://www.w3.org/1999/xlink" version="1.1" viewBox="0 -189 882 1008">
  <g transform="matrix(1 0 0 -1 0 819)">
   <path fill="currentColor" d="M882 267l-121 -44l-30 -68l58 -115l-70 -71l-117 56l-69 -29l-40 -122h-100l-44 121l-68 29l-115 -57l-71 70l56 117l-29 68l-122 41v100l121 44l29 68l-57 115l70 71l117 -56l69 29l40 122h100l44 -121l68 -29l115 57l71 -70l-56 -117l29 -68l122 -41v-100zM441 474h1 c-46 0 -83 -16 -113 -47c-31 -29 -46 -66 -46 -112c0 -45 15 -82 46 -113s68 -46 113 -46c46 0 83 15 112 46c31 30 46 67 46 113c0 44 -15 81 -46 112s-67 47 -113 47z"/>
  </g>
</svg>