<svg xmlns="http://www.w3.org/2000/svg" xmlns:xlink="http://www.w3.org/1999/xlink" version="1.1" viewBox="0 -189 1008 1008">
  <g transform="matrix(1 0 0 -1 0 819)">
   <path fill="currentColor" d="M784 693h161c34 0 63 -29 63 -63v-567c0 -34 -29 -63 -63 -63h-114c-66 -113 -187 -189 -327 -189s-261 76 -327 189h-114c-34 0 -63 29 -63 63v567c0 34 29 63 63 63h161l39 71c17 30 59 55 94 55h294c35 0 77 -25 94 -55zM504 -63c139 0 252 113 252 252 s-113 252 -252 252s-252 -113 -252 -252s113 -252 252 -252zM851 473c34 0 63 28 63 63c0 34 -29 63 -63 63c-35 0 -63 -29 -63 -63c0 -35 28 -63 63 -63z"/>
  </g>
</svg>