<svg xmlns="http://www.w3.org/2000/svg" xmlns:xlink="http://www.w3.org/1999/xlink" version="1.1" viewBox="0 -144 1008 1008">
  <g transform="matrix(1 0 0 -1 0 864)">
   <path fill="currentColor" d="M352 5v204l160 -83c-87 -78 -134 -120 -141 -126c-13 -12 -19 -10 -19 5zM490 573l-1 6c293 103 443 156 451 159s14 2 19 -2s6 -11 4 -20c-26 -114 -75 -324 -146 -631c-2 -9 -7 -15 -15 -18s-16 -3 -23 1l-281 151l23 25c260 283 393 425 396 428s3 6 0 9s-6 3 -10 0 l-554 -407l-113 45c-114 45 -176 71 -187 75s-16 9 -15 14s3 8 7 9s152 53 445 156z"/>
  </g>
</svg>