<svg xmlns="http://www.w3.org/2000/svg" xmlns:xlink="http://www.w3.org/1999/xlink" version="1.1" viewBox="0 -168 1008 1008">
  <g transform="matrix(1 0 0 -1 0 840)">
   <path fill="currentColor" d="M504 754c120 0 219 -43 297 -122c79 -78 122 -177 122 -297s-43 -219 -122 -297c-78 -79 -177 -122 -297 -122s-219 43 -297 122c-79 78 -122 177 -122 297c0 118 43 216 122 295c79 81 177 124 297 124zM671 502h124c-41 71 -104 124 -183 150c26 -45 46 -96 59 -150z M504 670c-35 -51 -63 -107 -81 -168h162c-18 61 -46 117 -81 168zM179 250h142c-8 55 -8 115 0 170h-142c-14 -55 -14 -115 0 -170zM337 168h-124c41 -71 104 -124 183 -150c-26 45 -46 97 -59 150zM213 502h124c13 54 33 105 59 150c-79 -26 -142 -79 -183 -150zM504 0 c35 52 63 107 81 168h-162c18 -61 46 -116 81 -168zM406 250h196c8 55 8 115 0 170h-196c-8 -55 -8 -115 0 -170zM612 18c79 26 142 79 183 150h-124c-13 -53 -33 -105 -59 -150zM687 250h142c14 55 14 115 0 170h-142c8 -55 8 -115 0 -170z"/>
  </g>
</svg>