<?xml version="1.0" encoding="UTF-8" standalone="no"?>
<!-- Created with Inkscape (http://www.inkscape.org/) -->

<svg
   version="1.1"
   id="svg3059"
   width="923.88"
   height="923.88"
   viewBox="0 0 923.88001 923.88"
   sodipodi:docname="AmeriCorps_Main-logo_Navy.eps"
   xmlns:inkscape="http://www.inkscape.org/namespaces/inkscape"
   xmlns:sodipodi="http://sodipodi.sourceforge.net/DTD/sodipodi-0.dtd"
   xmlns="http://www.w3.org/2000/svg"
   xmlns:svg="http://www.w3.org/2000/svg">
  <defs
     id="defs3063" />
  <sodipodi:namedview
     id="namedview3061"
     pagecolor="#505050"
     bordercolor="#eeeeee"
     borderopacity="1"
     inkscape:showpageshadow="0"
     inkscape:pageopacity="0"
     inkscape:pagecheckerboard="0"
     inkscape:deskcolor="#505050"
     showgrid="false" />
  <g
     id="g3067"
     inkscape:groupmode="layer"
     inkscape:label="Page 1"
     transform="matrix(1.3333333,0,0,-1.3333333,0,923.87998)">
    <g
       id="g3069"
       transform="scale(0.1)">
      <path
         d="M 3464.4,6929.1 C 1551,6929.1 0,5378.1 0,3464.7 0,1551 1551,0 3464.4,0 c 1913.4,0 3464.7,1551 3464.7,3464.7 0,1913.4 -1551.3,3464.4 -3464.7,3464.4 z M 4906.2,1805.4 4437.6,2748 h -1290 c -90,0 -163.5,-73.2 -163.5,-163.5 v -110.7 c 0,-120.6 -97.8,-218.1 -218.4,-218.1 H 1540.5 l -233.7,-469.5 h -266.4 l 387,776.1 h 1393.2 c 90,0 163.5,73.2 163.5,163.5 v 110.7 c 0,120.6 97.8,218.4 218.4,218.4 H 4284.3 L 4169.4,3285 H 3147.6 c -89.7,0 -163.2,-72.9 -163.5,-163.2 v -111 c 0,-120.6 -97.8,-218.4 -218.4,-218.4 H 1542.3 l 153,306.9 h 1125.3 c 90,0 163.2,72.9 163.5,162.9 v 111 c 0,120.6 97.8,218.4 218.4,218.4 h 813.3 l -114.9,230.1 h -753.3 c -90,0 -163.2,-72.9 -163.5,-162.9 v -111 c 0,-120.6 -97.8,-218.7 -218.4,-218.7 h -955.8 l 153.3,307.2 h 857.4 c 90,0 163.2,72.9 163.5,162.9 v 111 c 0,120.6 97.5,218.4 218.1,218.4 h 545.1 L 2976.6,5670 h 869.1 c 145.2,0 278.1,-82.2 343.2,-212.1 L 6012.6,1805.4 H 4906.2 v 0"
         style="fill:#495755;fill-opacity:1;fill-rule:evenodd;stroke:none"
         id="path3071" />
    </g>
  </g>
</svg>
