<svg width="32" height="32" viewBox="0 0 32 32" fill="none" xmlns="http://www.w3.org/2000/svg">
<path d="M6.55875 28.1984C5.89034 28.1984 5.26371 27.906 4.67885 27.3211C4.09399 26.7363 3.80157 26.1097 3.80157 25.4413C3.80157 24.7311 4.13577 24.0209 4.7624 23.3943C5.68146 22.4752 6.89295 21.8068 8.35509 21.0548C9.65013 20.3864 11.0287 19.5927 12.6162 18.3812C12.282 17.9217 12.0313 17.3368 11.906 16.7102C9.94256 17.0026 8.43864 17.3786 7.01828 17.8381C5.43081 18.3394 4.13577 18.7154 2.84073 18.7154C1.04439 18.7154 0 17.671 0 16C0 14.329 1.04439 13.2846 2.84073 13.2846C4.13577 13.2846 5.43081 13.6606 7.01828 14.1619C8.43864 14.6214 9.94256 15.0392 11.9478 15.3316C12.0313 14.705 12.282 14.1201 12.658 13.6188C11.0287 12.4073 9.65013 11.6136 8.35509 10.9452C6.89295 10.1932 5.68146 9.5248 4.7624 8.60574C4.13577 7.97911 3.80157 7.26893 3.80157 6.55875C3.80157 5.89034 4.09399 5.26371 4.67885 4.67885C5.26371 4.09399 5.89034 3.80156 6.55875 3.80156C7.26893 3.80156 7.97911 4.13577 8.60574 4.7624C9.5248 5.68146 10.1932 6.89295 10.9452 8.35509C11.6136 9.65013 12.4073 11.0287 13.6188 12.658C14.1201 12.282 14.705 12.0313 15.3316 11.9478C15.0392 9.94256 14.6214 8.43864 14.1619 7.01828C13.6606 5.43081 13.2846 4.13577 13.2846 2.84073C13.2846 1.04439 14.329 0 16 0C17.671 0 18.7154 1.04439 18.7154 2.84073C18.7154 4.13577 18.3394 5.43081 17.8381 7.01828C17.3786 8.43864 17.0026 9.94256 16.7102 11.906C17.3368 12.0313 17.9217 12.282 18.3812 12.6162C19.5927 11.0287 20.3864 9.65013 21.0548 8.35509C21.8068 6.89295 22.4752 5.68146 23.3943 4.7624C24.0209 4.13577 24.7311 3.80156 25.4413 3.80156C26.1097 3.80156 26.7363 4.09399 27.3211 4.67885C27.906 5.26371 28.1984 5.89034 28.1984 6.55875C28.1984 7.26893 27.8642 7.97911 27.2376 8.60574C26.3185 9.5248 25.107 10.1932 23.6449 10.9452C22.3499 11.6136 20.9713 12.4073 19.3838 13.6188C19.718 14.1201 19.9687 14.6632 20.094 15.3316C22.0574 15.0392 23.5614 14.6214 24.9817 14.1619C26.5692 13.6606 27.8642 13.2846 29.1593 13.2846C30.9556 13.2846 32 14.329 32 16C32 17.671 30.9556 18.7154 29.1593 18.7154C27.8642 18.7154 26.5692 18.3394 24.9817 17.8381C23.5614 17.3786 22.0574 17.0026 20.094 16.7102C19.9687 17.3368 19.7598 17.9217 19.3838 18.423C21.0131 19.5927 22.3499 20.3864 23.6449 21.0548C25.107 21.8068 26.3185 22.4752 27.2376 23.3943C27.8642 24.0209 28.1984 24.7311 28.1984 25.4413C28.1984 26.1097 27.906 26.7363 27.3211 27.3211C26.7363 27.906 26.1097 28.1984 25.4413 28.1984C24.7311 28.1984 24.0209 27.8642 23.3943 27.2376C22.4752 26.3185 21.8068 25.107 21.0548 23.6449C20.3864 22.3499 19.5927 21.0131 18.423 19.3838C17.9217 19.7598 17.3368 20.0104 16.7102 20.094C17.0026 22.0574 17.3786 23.5614 17.8381 24.9817C18.3394 26.5692 18.7154 27.8642 18.7154 29.1593C18.7154 30.9556 17.671 32 16 32C14.329 32 13.2846 30.9556 13.2846 29.1593C13.2846 27.8642 13.6606 26.5692 14.1619 24.9817C14.6214 23.5614 15.0392 22.0574 15.3316 20.094C14.705 19.9687 14.1201 19.718 13.6188 19.3838C12.4073 20.9713 11.6136 22.3499 10.9452 23.6449C10.1932 25.107 9.5248 26.3185 8.60574 27.2376C7.97911 27.8642 7.26893 28.1984 6.55875 28.1984Z" fill="#343E3D"/>
</svg>
