<svg width="1312" height="1312" viewBox="0 0 1312 1312" fill="none" xmlns="http://www.w3.org/2000/svg">
<circle cx="655.5" cy="874.5" r="437.5" fill="#E60000"/>
<path fill-rule="evenodd" clip-rule="evenodd" d="M656 816.615C786.907 741.005 875 599.54 875 437.5C875 275.46 786.907 133.995 656 58.3852C720.294 21.2499 794.915 0 874.5 0C1116.12 0 1312 195.875 1312 437.5C1312 679.125 1116.12 875 874.5 875C794.915 875 720.294 853.75 656 816.615Z" fill="#2CB0C4"/>
<path fill-rule="evenodd" clip-rule="evenodd" d="M656 58.3852C525.093 133.995 437 275.46 437 437.5C437 599.54 525.093 741.005 656 816.615C591.706 853.75 517.085 875 437.5 875C195.875 875 0 679.125 0 437.5C0 195.875 195.875 0 437.5 0C517.085 0 591.706 21.2499 656 58.3852Z" fill="#23D16C"/>
<path fill-rule="evenodd" clip-rule="evenodd" d="M656 816.614C786.907 741.004 875 599.539 875 437.5C875 275.46 786.907 133.995 656 58.3848C525.093 133.995 437 275.46 437 437.5C437 599.539 525.093 741.004 656 816.614Z" fill="#66FFED"/>
<path fill-rule="evenodd" clip-rule="evenodd" d="M221.601 818.105C249.268 603.119 432.985 437 655.5 437C734.014 437 807.697 457.682 871.399 493.895C843.732 708.881 660.015 875 437.5 875C358.986 875 285.303 854.318 221.601 818.105Z" fill="#FFD200"/>
<path fill-rule="evenodd" clip-rule="evenodd" d="M440.533 493.366C504.021 457.481 577.369 437 655.5 437C878.198 437 1062.03 603.391 1089.47 818.634C1025.98 854.519 952.631 875 874.5 875C651.802 875 467.967 708.609 440.533 493.366Z" fill="#FF0055"/>
<path fill-rule="evenodd" clip-rule="evenodd" d="M871.399 493.895C853.627 631.99 771.469 749.921 656 816.615C540.383 749.836 458.163 631.689 440.533 493.366C504.021 457.481 577.369 437 655.5 437C734.013 437 807.697 457.682 871.399 493.895Z" fill="#FFFDFD"/>
<g style="mix-blend-mode:soft-light" opacity="0.5">
<path d="M656 910C585.858 910 529 966.858 529 1037C529 1107.14 585.858 1164 656 1164C726.142 1164 783 1107.14 783 1037C783 966.858 726.142 910 656 910ZM698.14 1093.13C696.143 1095.11 694.049 1097.2 692.349 1098.9C690.817 1100.44 689.737 1102.33 689.189 1104.39C688.416 1107.29 687.791 1110.21 686.746 1113.03L677.841 1137.02C670.794 1138.55 663.502 1139.42 656 1139.42V1125.4C656.865 1118.94 652.088 1106.83 644.411 1099.15C641.339 1096.08 639.613 1091.91 639.613 1087.56V1071.17C639.613 1065.21 636.402 1059.73 631.184 1056.85C623.825 1052.78 613.358 1047.09 606.188 1043.48C600.309 1040.52 594.871 1036.75 589.98 1032.34L589.571 1031.97C586.074 1028.81 582.968 1025.25 580.322 1021.35C575.519 1014.3 567.694 1002.7 562.609 995.162C573.092 971.861 591.983 953.149 615.457 942.984L627.753 949.134C633.201 951.859 639.613 947.9 639.613 941.806V936.02C643.705 935.359 647.868 934.939 652.103 934.78L666.595 949.273C669.796 952.473 669.796 957.661 666.595 960.861L664.194 963.258L658.898 968.553C657.301 970.151 657.301 972.747 658.898 974.345L661.3 976.747C662.898 978.344 662.898 980.941 661.3 982.539L657.203 986.635C656.434 987.403 655.392 987.834 654.305 987.834H649.701C648.636 987.834 647.612 988.248 646.844 988.996L641.764 993.938C641.141 994.544 640.727 995.333 640.582 996.19C640.436 997.047 640.567 997.928 640.955 998.705L648.938 1014.68C650.3 1017.4 648.319 1020.61 645.277 1020.61H642.388C641.4 1020.61 640.448 1020.25 639.705 1019.6L634.953 1015.48C633.877 1014.54 632.578 1013.91 631.181 1013.63C629.785 1013.35 628.341 1013.44 626.99 1013.89L611.028 1019.21C609.809 1019.62 608.749 1020.4 607.998 1021.44C607.247 1022.48 606.843 1023.73 606.844 1025.02C606.844 1027.34 608.155 1029.45 610.229 1030.49L615.903 1033.33C620.722 1035.74 626.037 1036.99 631.424 1036.99C636.812 1036.99 642.993 1050.97 647.812 1053.38H681.994C686.342 1053.38 690.505 1055.11 693.583 1058.18L700.593 1065.19C703.522 1068.12 705.167 1072.09 705.166 1076.24C705.165 1079.38 704.544 1082.48 703.338 1085.38C702.133 1088.28 700.366 1090.91 698.14 1093.13V1093.13ZM742.544 1046.35C739.579 1045.6 736.993 1043.79 735.298 1041.24L726.091 1027.43C724.743 1025.41 724.024 1023.04 724.024 1020.61C724.024 1018.19 724.743 1015.81 726.091 1013.8L736.123 998.751C737.311 996.975 738.939 995.53 740.854 994.578L747.501 991.254C754.425 1005.04 758.419 1020.55 758.419 1037C758.419 1041.44 758.04 1045.79 757.487 1050.08L742.544 1046.35Z" fill="#FFFDFD"/>
</g>
<g clip-path="url(#clip0_1332_2792)">
<path d="M656 577C657.852 577 659.79 578.012 661.814 580.035C663.321 581.542 664.075 583.887 664.075 587.07C664.075 587.372 663.967 588.19 663.75 589.522L658.711 620.372L677.058 595.008C677.963 593.759 678.458 593.114 678.544 593.072C680.784 590.791 682.98 589.65 685.134 589.65C687.976 589.65 690.065 590.317 691.4 591.652C692.692 592.943 693.338 595.03 693.338 597.913C693.338 600.28 692.218 602.475 689.979 604.496C689.548 604.882 688.794 605.463 687.718 606.24L662.587 624.247L693.532 619.213C694.609 619.047 695.405 618.963 695.922 618.963C699.195 618.963 701.564 619.695 703.028 621.157C705.009 623.136 706 625.072 706 626.966C706 628.858 705.009 630.794 703.028 632.774C701.478 634.323 699.109 635.097 695.922 635.097C695.621 635.097 694.673 634.972 693.08 634.722L662.587 629.753L688.041 648.018C689.247 648.964 689.893 649.46 689.979 649.504C692.218 651.785 693.338 653.98 693.338 656.087C693.338 658.97 692.692 661.057 691.4 662.348C690.065 663.683 687.976 664.35 685.134 664.35C683.282 664.35 681.085 663.209 678.544 660.928C678.114 660.539 677.511 659.808 676.735 658.734L658.711 633.628L663.75 664.478C663.967 665.813 664.075 666.63 664.075 666.93C664.075 670.114 663.321 672.459 661.814 673.965C659.79 675.988 657.852 677 656 677C654.148 677 652.21 675.988 650.186 673.965C648.678 672.458 647.925 670.113 647.925 666.93C647.925 666.328 648.033 665.381 648.25 664.091L653.289 633.628L635.264 658.734C634.489 659.808 633.886 660.539 633.456 660.928C631.216 663.209 629.02 664.35 626.866 664.35C624.024 664.35 621.935 663.683 620.6 662.348C619.308 661.057 618.662 658.97 618.662 656.087C618.662 652.817 619.782 650.623 622.021 649.504C622.107 649.449 622.753 648.953 623.959 648.018L649.413 629.753L618.92 634.722C617.327 634.972 616.379 635.097 616.078 635.097C612.891 635.097 610.522 634.323 608.972 632.774C606.991 630.795 606 628.859 606 626.966C606 625.073 606.991 623.137 608.972 621.157C610.436 619.695 612.805 618.963 616.078 618.963C616.595 618.963 617.391 619.047 618.468 619.213L649.413 624.247L624.282 606.24C623.206 605.466 622.452 604.884 622.021 604.496C619.782 602.215 618.662 600.02 618.662 597.913C618.662 595.03 619.308 592.943 620.6 591.652C621.935 590.317 624.024 589.65 626.866 589.65C628.417 590.51 630.613 591.651 633.456 593.072C633.542 593.128 634.037 593.773 634.942 595.008L653.289 620.372L648.25 589.909C648.033 588.618 647.925 587.672 647.925 587.07C647.925 583.886 648.679 581.541 650.186 580.035C652.167 578.012 654.105 577 656 577H656Z" fill="#495755"/>
</g>
<g style="mix-blend-mode:soft-light" opacity="0.5" clip-path="url(#clip1_1332_2792)">
<path d="M213.679 390.494C213.682 392.841 214.376 395.139 215.678 397.093L222.054 406.677C223.143 408.315 224.62 409.659 226.354 410.588C228.088 411.518 230.024 412.004 231.992 412.004H255.012C256.979 412.004 258.916 411.518 260.65 410.588C262.384 409.659 263.861 408.315 264.95 406.677L271.326 397.093C272.627 395.138 273.322 392.843 273.325 390.494L273.34 376.188H213.66L213.679 390.494ZM177.844 286.657C177.844 303.209 183.98 318.31 194.094 329.848C200.256 336.88 209.896 351.57 213.57 363.963C213.585 364.06 213.597 364.157 213.611 364.254H273.389C273.403 364.157 273.415 364.064 273.43 363.963C277.104 351.57 286.744 336.88 292.906 329.848C303.02 318.31 309.156 303.209 309.156 286.657C309.156 250.326 279.652 220.888 243.295 221C205.24 221.116 177.844 251.952 177.844 286.657ZM243.5 256.813C227.045 256.813 213.656 270.201 213.656 286.657C213.656 289.954 210.985 292.625 207.688 292.625C204.39 292.625 201.719 289.954 201.719 286.657C201.719 263.617 220.461 244.875 243.5 244.875C246.798 244.875 249.469 247.546 249.469 250.844C249.469 254.142 246.798 256.813 243.5 256.813Z" fill="#FFFDFD"/>
</g>
<path d="M272.248 353.768C265.549 353.768 260.792 352.168 257.976 348.968C255.203 345.768 253.816 340.883 253.816 334.312V310.248H263.928V335.144C263.928 337.235 264.12 339.069 264.504 340.648C264.931 342.184 265.741 343.379 266.936 344.232C268.131 345.085 269.901 345.512 272.248 345.512C274.595 345.512 276.344 345.085 277.496 344.232C278.691 343.379 279.48 342.184 279.864 340.648C280.291 339.069 280.504 337.235 280.504 335.144V310.248H290.616V334.312C290.616 340.883 289.208 345.768 286.392 348.968C283.576 352.168 278.861 353.768 272.248 353.768ZM294.078 353L309.758 331.048L294.974 310.248H307.07L315.774 322.536L324.542 310.248H336.638L321.854 331.048L337.534 353H325.374L315.774 339.496L306.238 353H294.078Z" fill="#FFFDFD"/>
<g style="mix-blend-mode:soft-light" opacity="0.5">
<path d="M1142.64 309.962L1139.77 314.978C1138.71 316.837 1136.47 317.609 1134.47 316.872C1130.33 315.329 1126.54 313.119 1123.21 310.348C1121.6 309.015 1121.18 306.664 1122.23 304.84L1125.1 299.824C1122.68 297.017 1120.79 293.755 1119.53 290.212H1113.74C1111.63 290.212 1109.81 288.704 1109.46 286.599C1108.76 282.389 1108.72 277.97 1109.46 273.585C1109.81 271.48 1111.63 269.936 1113.74 269.936H1119.53C1120.79 266.393 1122.68 263.131 1125.1 260.325L1122.23 255.308C1121.18 253.484 1121.56 251.134 1123.21 249.801C1126.54 247.03 1130.37 244.82 1134.47 243.276C1136.47 242.54 1138.71 243.311 1139.77 245.171L1142.64 250.187C1146.33 249.52 1150.08 249.52 1153.76 250.187L1156.64 245.171C1157.69 243.311 1159.94 242.54 1161.94 243.276C1166.08 244.82 1169.86 247.03 1173.2 249.801C1174.81 251.134 1175.23 253.484 1174.18 255.308L1171.3 260.325C1173.72 263.131 1175.62 266.393 1176.88 269.936H1182.67C1184.77 269.936 1186.6 271.445 1186.95 273.55C1187.65 277.759 1187.69 282.179 1186.95 286.564C1186.6 288.669 1184.77 290.212 1182.67 290.212H1176.88C1175.62 293.755 1173.72 297.017 1171.3 299.824L1174.18 304.84C1175.23 306.664 1174.85 309.015 1173.2 310.348C1169.86 313.119 1166.04 315.329 1161.94 316.872C1159.94 317.609 1157.69 316.837 1156.64 314.978L1153.76 309.962C1150.12 310.628 1146.33 310.628 1142.64 309.962ZM1138.96 289.335C1152.47 299.719 1167.87 284.319 1157.48 270.813C1143.98 260.395 1128.58 275.83 1138.96 289.335ZM1098.51 343.322L1110.34 349.215C1113.88 351.25 1115.42 355.565 1114.02 359.423C1110.9 367.912 1104.76 375.7 1099.08 382.505C1096.48 385.627 1091.99 386.399 1088.45 384.364L1078.24 378.471C1072.63 383.277 1066.1 387.101 1058.98 389.591V401.378C1058.98 405.447 1056.07 408.955 1052.07 409.656C1043.44 411.13 1034.39 411.2 1025.44 409.656C1021.41 408.955 1018.43 405.482 1018.43 401.378V389.591C1011.31 387.066 1004.78 383.277 999.17 378.471L988.962 384.329C985.454 386.364 980.929 385.592 978.333 382.47C972.65 375.665 966.652 367.877 963.529 359.423C962.126 355.6 963.67 351.285 967.213 349.215L978.894 343.322C977.526 335.99 977.526 328.448 978.894 321.082L967.213 315.153C963.67 313.119 962.091 308.804 963.529 304.98C966.652 296.491 972.65 288.704 978.333 281.898C980.929 278.776 985.419 278.005 988.962 280.039L999.17 285.932C1004.78 281.127 1011.31 277.303 1018.43 274.812V262.991C1018.43 258.957 1021.3 255.449 1025.3 254.747C1033.93 253.274 1043.02 253.204 1051.96 254.712C1056 255.414 1058.98 258.886 1058.98 262.991V274.777C1066.1 277.303 1072.63 281.092 1078.24 285.897L1088.45 280.004C1091.95 277.97 1096.48 278.741 1099.08 281.863C1104.76 288.669 1110.72 296.456 1113.84 304.945C1115.25 308.769 1113.88 313.084 1110.34 315.153L1098.51 321.047C1099.88 328.413 1099.88 335.955 1098.51 343.322ZM1057.26 350.724C1078.03 323.713 1047.19 292.878 1020.18 313.645C999.415 340.656 1030.25 371.49 1057.26 350.724ZM1142.64 414.813L1139.77 419.829C1138.71 421.689 1136.47 422.46 1134.47 421.724C1130.33 420.18 1126.54 417.97 1123.21 415.199C1121.6 413.866 1121.18 411.516 1122.23 409.692L1125.1 404.675C1122.68 401.869 1120.79 398.607 1119.53 395.064H1113.74C1111.63 395.064 1109.81 393.555 1109.46 391.45C1108.76 387.241 1108.72 382.821 1109.46 378.436C1109.81 376.331 1111.63 374.788 1113.74 374.788H1119.53C1120.79 371.245 1122.68 367.983 1125.1 365.176L1122.23 360.16C1121.18 358.336 1121.56 355.985 1123.21 354.652C1126.54 351.881 1130.37 349.671 1134.47 348.128C1136.47 347.391 1138.71 348.163 1139.77 350.022L1142.64 355.038C1146.33 354.372 1150.08 354.372 1153.76 355.038L1156.64 350.022C1157.69 348.163 1159.94 347.391 1161.94 348.128C1166.08 349.671 1169.86 351.881 1173.2 354.652C1174.81 355.985 1175.23 358.336 1174.18 360.16L1171.3 365.176C1173.72 367.983 1175.62 371.245 1176.88 374.788H1182.67C1184.77 374.788 1186.6 376.296 1186.95 378.401C1187.65 382.61 1187.69 387.03 1186.95 391.415C1186.6 393.52 1184.77 395.064 1182.67 395.064H1176.88C1175.62 398.607 1173.72 401.869 1171.3 404.675L1174.18 409.692C1175.23 411.516 1174.85 413.866 1173.2 415.199C1169.86 417.97 1166.04 420.18 1161.94 421.724C1159.94 422.46 1157.69 421.689 1156.64 419.829L1153.76 414.813C1150.12 415.48 1146.33 415.48 1142.64 414.813ZM1138.96 394.152C1152.47 404.535 1167.87 389.135 1157.48 375.63C1143.98 365.246 1128.58 380.646 1138.96 394.152Z" fill="#FFFDFD"/>
</g>
<path d="M914.816 353V310.248H947.712V319.144H924.928V326.568H938.816V335.464H924.928V344.104H947.712V353H914.816ZM952.325 353V321.256H960.837L962.053 325.48C962.778 324.285 963.973 323.133 965.637 322.024C967.344 320.915 969.413 320.36 971.845 320.36C975.941 320.36 978.736 321.512 980.229 323.816C981.765 326.077 982.533 329.363 982.533 333.672V353H972.805V336.104C972.805 334.611 972.72 333.245 972.549 332.008C972.378 330.771 971.952 329.789 971.269 329.064C970.629 328.296 969.52 327.912 967.941 327.912C965.893 327.912 964.4 328.659 963.461 330.152C962.522 331.603 962.053 333.779 962.053 336.68V353H952.325ZM1004.5 365.992C1002.75 365.992 1000.98 365.757 999.19 365.288C997.398 364.861 995.734 364.093 994.198 362.984C992.662 361.875 991.403 360.36 990.422 358.44L998.358 355.56C998.955 356.712 999.809 357.501 1000.92 357.928C1002.03 358.355 1003.14 358.568 1004.25 358.568C1006.29 358.568 1007.94 358.077 1009.17 357.096C1010.41 356.157 1011.03 354.643 1011.03 352.552V346.856C1009.66 348.563 1008.09 349.821 1006.29 350.632C1004.54 351.443 1002.77 351.848 1000.98 351.848C998.678 351.848 996.481 351.229 994.39 349.992C992.299 348.755 990.593 346.984 989.27 344.68C987.947 342.376 987.286 339.624 987.286 336.424C987.286 332.712 987.947 329.683 989.27 327.336C990.593 324.947 992.278 323.176 994.326 322.024C996.374 320.872 998.486 320.296 1000.66 320.296C1002.67 320.296 1004.59 320.744 1006.42 321.64C1008.3 322.536 1009.84 323.859 1011.03 325.608L1012.31 321.256H1020.69V350.632C1020.69 355.923 1019.26 359.805 1016.41 362.28C1013.55 364.755 1009.58 365.992 1004.5 365.992ZM1004.44 344.296C1005.72 344.296 1006.87 344.061 1007.89 343.592C1008.96 343.08 1009.81 342.227 1010.45 341.032C1011.09 339.837 1011.41 338.216 1011.41 336.168C1011.41 333.053 1010.71 330.899 1009.3 329.704C1007.94 328.509 1006.32 327.912 1004.44 327.912C1002.52 327.912 1000.85 328.552 999.446 329.832C998.081 331.112 997.398 333.139 997.398 335.912C997.398 338.728 998.081 340.84 999.446 342.248C1000.85 343.613 1002.52 344.296 1004.44 344.296ZM1036.42 316.008C1034.84 316.008 1033.47 315.453 1032.32 314.344C1031.21 313.192 1030.66 311.827 1030.66 310.248C1030.66 308.627 1031.21 307.261 1032.32 306.152C1033.47 305.043 1034.84 304.488 1036.42 304.488C1038.04 304.488 1039.4 305.043 1040.51 306.152C1041.62 307.261 1042.18 308.627 1042.18 310.248C1042.18 311.827 1041.62 313.192 1040.51 314.344C1039.4 315.453 1038.04 316.008 1036.42 316.008ZM1031.49 353V328.68H1025.47V321.256H1041.28V353H1031.49ZM1047.33 353V321.256H1055.84L1057.05 325.48C1057.78 324.285 1058.97 323.133 1060.64 322.024C1062.34 320.915 1064.41 320.36 1066.85 320.36C1070.94 320.36 1073.74 321.512 1075.23 323.816C1076.77 326.077 1077.53 329.363 1077.53 333.672V353H1067.81V336.104C1067.81 334.611 1067.72 333.245 1067.55 332.008C1067.38 330.771 1066.95 329.789 1066.27 329.064C1065.63 328.296 1064.52 327.912 1062.94 327.912C1060.89 327.912 1059.4 328.659 1058.46 330.152C1057.52 331.603 1057.05 333.779 1057.05 336.68V353H1047.33ZM1099.19 353.768C1095.78 353.768 1092.75 353.107 1090.11 351.784C1087.5 350.419 1085.46 348.477 1083.96 345.96C1082.51 343.443 1081.79 340.435 1081.79 336.936C1081.79 333.565 1082.55 330.643 1084.09 328.168C1085.67 325.693 1087.74 323.773 1090.3 322.408C1092.9 321.043 1095.74 320.36 1098.81 320.36C1102.31 320.36 1105.3 321.192 1107.77 322.856C1110.29 324.477 1112.19 326.739 1113.47 329.64C1114.75 332.499 1115.28 335.805 1115.07 339.56H1091.58C1091.75 341.779 1092.56 343.443 1094.01 344.552C1095.5 345.661 1097.15 346.216 1098.94 346.216C1100.43 346.216 1101.71 346.003 1102.78 345.576C1103.89 345.107 1104.74 344.531 1105.34 343.848L1113.08 346.664C1111.42 349.096 1109.33 350.888 1106.81 352.04C1104.34 353.192 1101.8 353.768 1099.19 353.768ZM1091.58 333.8H1106.04C1106 331.752 1105.3 330.216 1103.93 329.192C1102.56 328.125 1100.94 327.592 1099.07 327.592C1097.23 327.592 1095.59 328.083 1094.14 329.064C1092.73 330.045 1091.88 331.624 1091.58 333.8ZM1135.44 353.768C1132.03 353.768 1129 353.107 1126.36 351.784C1123.75 350.419 1121.71 348.477 1120.21 345.96C1118.76 343.443 1118.04 340.435 1118.04 336.936C1118.04 333.565 1118.8 330.643 1120.34 328.168C1121.92 325.693 1123.99 323.773 1126.55 322.408C1129.15 321.043 1131.99 320.36 1135.06 320.36C1138.56 320.36 1141.55 321.192 1144.02 322.856C1146.54 324.477 1148.44 326.739 1149.72 329.64C1151 332.499 1151.53 335.805 1151.32 339.56H1127.83C1128 341.779 1128.81 343.443 1130.26 344.552C1131.75 345.661 1133.4 346.216 1135.19 346.216C1136.68 346.216 1137.96 346.003 1139.03 345.576C1140.14 345.107 1140.99 344.531 1141.59 343.848L1149.33 346.664C1147.67 349.096 1145.58 350.888 1143.06 352.04C1140.59 353.192 1138.05 353.768 1135.44 353.768ZM1127.83 333.8H1142.29C1142.25 331.752 1141.55 330.216 1140.18 329.192C1138.81 328.125 1137.19 327.592 1135.32 327.592C1133.48 327.592 1131.84 328.083 1130.39 329.064C1128.98 330.045 1128.13 331.624 1127.83 333.8ZM1155.95 353V321.256H1163.63L1165.36 327.08C1166.34 324.52 1167.68 322.728 1169.39 321.704C1171.1 320.68 1173.17 320.232 1175.6 320.36V330.088C1175.09 330.003 1174.64 329.96 1174.25 329.96C1173.87 329.917 1173.44 329.896 1172.97 329.896C1170.63 329.896 1168.81 330.451 1167.53 331.56C1166.3 332.669 1165.68 334.483 1165.68 337V353H1155.95ZM1189.98 316.008C1188.4 316.008 1187.04 315.453 1185.88 314.344C1184.77 313.192 1184.22 311.827 1184.22 310.248C1184.22 308.627 1184.77 307.261 1185.88 306.152C1187.04 305.043 1188.4 304.488 1189.98 304.488C1191.6 304.488 1192.97 305.043 1194.08 306.152C1195.19 307.261 1195.74 308.627 1195.74 310.248C1195.74 311.827 1195.19 313.192 1194.08 314.344C1192.97 315.453 1191.6 316.008 1189.98 316.008ZM1185.05 353V328.68H1179.04V321.256H1194.84V353H1185.05ZM1200.89 353V321.256H1209.4L1210.62 325.48C1211.34 324.285 1212.54 323.133 1214.2 322.024C1215.91 320.915 1217.98 320.36 1220.41 320.36C1224.5 320.36 1227.3 321.512 1228.79 323.816C1230.33 326.077 1231.1 329.363 1231.1 333.672V353H1221.37V336.104C1221.37 334.611 1221.28 333.245 1221.11 332.008C1220.94 330.771 1220.51 329.789 1219.83 329.064C1219.19 328.296 1218.08 327.912 1216.5 327.912C1214.46 327.912 1212.96 328.659 1212.02 330.152C1211.08 331.603 1210.62 333.779 1210.62 336.68V353H1200.89ZM1253.06 365.992C1251.32 365.992 1249.54 365.757 1247.75 365.288C1245.96 364.861 1244.3 364.093 1242.76 362.984C1241.22 361.875 1239.97 360.36 1238.98 358.44L1246.92 355.56C1247.52 356.712 1248.37 357.501 1249.48 357.928C1250.59 358.355 1251.7 358.568 1252.81 358.568C1254.86 358.568 1256.5 358.077 1257.74 357.096C1258.97 356.157 1259.59 354.643 1259.59 352.552V346.856C1258.23 348.563 1256.65 349.821 1254.86 350.632C1253.11 351.443 1251.34 351.848 1249.54 351.848C1247.24 351.848 1245.04 351.229 1242.95 349.992C1240.86 348.755 1239.16 346.984 1237.83 344.68C1236.51 342.376 1235.85 339.624 1235.85 336.424C1235.85 332.712 1236.51 329.683 1237.83 327.336C1239.16 324.947 1240.84 323.176 1242.89 322.024C1244.94 320.872 1247.05 320.296 1249.22 320.296C1251.23 320.296 1253.15 320.744 1254.98 321.64C1256.86 322.536 1258.4 323.859 1259.59 325.608L1260.87 321.256H1269.26V350.632C1269.26 355.923 1267.83 359.805 1264.97 362.28C1262.11 364.755 1258.14 365.992 1253.06 365.992ZM1253 344.296C1254.28 344.296 1255.43 344.061 1256.46 343.592C1257.52 343.08 1258.38 342.227 1259.02 341.032C1259.66 339.837 1259.98 338.216 1259.98 336.168C1259.98 333.053 1259.27 330.899 1257.86 329.704C1256.5 328.509 1254.88 327.912 1253 327.912C1251.08 327.912 1249.42 328.552 1248.01 329.832C1246.64 331.112 1245.96 333.139 1245.96 335.912C1245.96 338.728 1246.64 340.84 1248.01 342.248C1249.42 343.613 1251.08 344.296 1253 344.296Z" fill="#FFFDFD"/>
<path d="M543.022 1079.77C538.585 1079.77 534.766 1078.87 531.566 1077.08C528.366 1075.29 525.913 1072.73 524.206 1069.4C522.5 1066.07 521.646 1062.15 521.646 1057.62C521.646 1053.1 522.521 1049.2 524.27 1045.91C526.062 1042.58 528.58 1040.02 531.822 1038.23C535.065 1036.4 538.884 1035.48 543.278 1035.48C547.332 1035.48 550.852 1036.38 553.838 1038.17C556.868 1039.96 559.193 1042.37 560.814 1045.4L551.854 1048.66C550.916 1046.91 549.636 1045.68 548.014 1044.95C546.393 1044.18 544.708 1043.8 542.958 1043.8C540.996 1043.8 539.204 1044.35 537.582 1045.46C535.961 1046.53 534.681 1048.11 533.742 1050.2C532.804 1052.25 532.334 1054.72 532.334 1057.62C532.334 1062.1 533.358 1065.54 535.406 1067.93C537.497 1070.27 540.057 1071.45 543.086 1071.45C544.708 1071.45 546.372 1071.11 548.078 1070.42C549.828 1069.74 551.193 1068.48 552.174 1066.65L561.07 1069.91C559.364 1072.94 556.932 1075.35 553.774 1077.14C550.66 1078.89 547.076 1079.77 543.022 1079.77ZM576.677 1079.77C573.861 1079.77 571.642 1079.26 570.021 1078.23C568.442 1077.17 567.311 1075.63 566.629 1073.62C565.989 1071.62 565.669 1069.19 565.669 1066.33V1047.26H575.397V1064.98C575.397 1067.89 575.823 1069.83 576.677 1070.81C577.573 1071.75 578.81 1072.22 580.389 1072.22C582.309 1072.22 583.695 1071.58 584.549 1070.3C585.445 1069.02 585.893 1066.9 585.893 1063.96V1047.26H595.685V1079H587.237L585.893 1074.52C584.954 1076.1 583.781 1077.38 582.373 1078.36C581.007 1079.3 579.109 1079.77 576.677 1079.77ZM602.169 1079V1047.26H609.849L611.577 1053.08C612.558 1050.52 613.902 1048.73 615.609 1047.7C617.315 1046.68 619.385 1046.23 621.817 1046.36V1056.09C621.305 1056 620.857 1055.96 620.473 1055.96C620.089 1055.92 619.662 1055.9 619.193 1055.9C616.846 1055.9 615.033 1056.45 613.753 1057.56C612.515 1058.67 611.897 1060.48 611.897 1063V1079H602.169ZM636.199 1042.01C634.62 1042.01 633.255 1041.45 632.103 1040.34C630.993 1039.19 630.439 1037.83 630.439 1036.25C630.439 1034.63 630.993 1033.26 632.103 1032.15C633.255 1031.04 634.62 1030.49 636.199 1030.49C637.82 1030.49 639.185 1031.04 640.295 1032.15C641.404 1033.26 641.959 1034.63 641.959 1036.25C641.959 1037.83 641.404 1039.19 640.295 1040.34C639.185 1041.45 637.82 1042.01 636.199 1042.01ZM631.271 1079V1054.68H625.255V1047.26H641.063V1079H631.271ZM662.274 1079.77C659.33 1079.77 656.578 1079.17 654.018 1077.98C651.458 1076.78 649.389 1074.95 647.81 1072.47C646.232 1069.95 645.442 1066.8 645.442 1063C645.442 1059.16 646.232 1056.02 647.81 1053.59C649.389 1051.12 651.458 1049.3 654.018 1048.15C656.578 1046.96 659.33 1046.36 662.274 1046.36C665.176 1046.36 667.906 1046.96 670.466 1048.15C673.026 1049.3 675.096 1051.12 676.674 1053.59C678.253 1056.02 679.042 1059.16 679.042 1063C679.042 1066.8 678.253 1069.95 676.674 1072.47C675.096 1074.95 673.026 1076.78 670.466 1077.98C667.906 1079.17 665.176 1079.77 662.274 1079.77ZM662.274 1072.22C664.237 1072.22 665.858 1071.51 667.138 1070.1C668.461 1068.7 669.122 1066.33 669.122 1063C669.122 1059.63 668.44 1057.28 667.074 1055.96C665.752 1054.59 664.152 1053.91 662.274 1053.91C660.354 1053.91 658.712 1054.59 657.346 1055.96C656.024 1057.28 655.362 1059.63 655.362 1063C655.362 1066.33 656.024 1068.7 657.346 1070.1C658.669 1071.51 660.312 1072.22 662.274 1072.22ZM697.49 1079.77C693.778 1079.77 690.556 1079.09 687.826 1077.72C685.138 1076.35 683.175 1074.35 681.938 1071.7L690.194 1068.7C690.663 1070.02 691.559 1071.02 692.882 1071.7C694.247 1072.34 695.847 1072.66 697.682 1072.66C699.26 1072.66 700.647 1072.43 701.842 1071.96C703.079 1071.45 703.698 1070.7 703.698 1069.72C703.698 1069.04 703.335 1068.46 702.61 1067.99C701.884 1067.52 700.604 1067.14 698.77 1066.84L693.074 1065.88C690.002 1065.37 687.506 1064.32 685.586 1062.74C683.666 1061.17 682.706 1059.05 682.706 1056.41C682.706 1054.19 683.367 1052.33 684.69 1050.84C686.055 1049.35 687.847 1048.24 690.066 1047.51C692.284 1046.74 694.695 1046.36 697.298 1046.36C700.327 1046.36 703.122 1046.91 705.682 1048.02C708.284 1049.09 710.183 1050.88 711.378 1053.4L703.186 1056.41C702.887 1055.26 702.183 1054.49 701.074 1054.1C699.964 1053.68 698.684 1053.46 697.234 1053.46C693.735 1053.46 691.986 1054.32 691.986 1056.02C691.986 1056.66 692.284 1057.2 692.882 1057.62C693.479 1058.01 694.482 1058.33 695.89 1058.58L701.778 1059.67C705.618 1060.35 708.455 1061.36 710.29 1062.68C712.124 1064 713.042 1065.99 713.042 1068.63C713.042 1071.11 712.338 1073.18 710.93 1074.84C709.522 1076.5 707.644 1077.74 705.298 1078.55C702.951 1079.36 700.348 1079.77 697.49 1079.77ZM726.511 1042.01C724.933 1042.01 723.567 1041.45 722.415 1040.34C721.306 1039.19 720.751 1037.83 720.751 1036.25C720.751 1034.63 721.306 1033.26 722.415 1032.15C723.567 1031.04 724.933 1030.49 726.511 1030.49C728.133 1030.49 729.498 1031.04 730.607 1032.15C731.717 1033.26 732.271 1034.63 732.271 1036.25C732.271 1037.83 731.717 1039.19 730.607 1040.34C729.498 1041.45 728.133 1042.01 726.511 1042.01ZM721.583 1079V1054.68H715.567V1047.26H731.375V1079H721.583ZM750.795 1079C748.192 1079 746.123 1078.79 744.587 1078.36C743.051 1077.89 741.941 1077.02 741.259 1075.74C740.619 1074.41 740.299 1072.51 740.299 1070.04V1054.68H735.051V1047.26H740.299V1039.32H750.027V1047.26H756.939V1054.68H750.027V1067.48C750.027 1068.97 750.304 1069.95 750.859 1070.42C751.456 1070.85 752.544 1071.06 754.123 1071.06H756.939V1079H750.795ZM762.629 1089.3V1082.26H764.549C765.999 1082.26 767.087 1082.2 767.813 1082.07C768.538 1081.94 769.093 1081.62 769.477 1081.11C769.903 1080.64 770.287 1079.87 770.629 1078.81L758.469 1047.26H768.901L775.109 1067.1L781.189 1047.26H791.621L779.461 1079C778.437 1081.69 777.391 1083.78 776.325 1085.27C775.301 1086.77 773.978 1087.81 772.357 1088.41C770.735 1089.01 768.538 1089.3 765.765 1089.3H762.629Z" fill="#FFFDFD"/>
<defs>
<clipPath id="clip0_1332_2792">
<rect width="100" height="100" fill="white" transform="translate(606 577)"/>
</clipPath>
<clipPath id="clip1_1332_2792">
<rect width="191" height="191" fill="white" transform="translate(148 221)"/>
</clipPath>
</defs>
</svg>
