<svg width="1312" height="1312" viewBox="0 0 1312 1312" fill="none" xmlns="http://www.w3.org/2000/svg">
<g clip-path="url(#clip0_1411_2340)">
<circle cx="655.5" cy="874.5" r="437.5" fill="#E60000"/>
<path fill-rule="evenodd" clip-rule="evenodd" d="M656 816.615C786.907 741.005 875 599.54 875 437.5C875 275.46 786.907 133.995 656 58.3852C720.294 21.2499 794.915 0 874.5 0C1116.12 0 1312 195.875 1312 437.5C1312 679.125 1116.12 875 874.5 875C794.915 875 720.294 853.75 656 816.615Z" fill="#23D16C"/>
<path fill-rule="evenodd" clip-rule="evenodd" d="M656 58.3852C525.093 133.995 437 275.46 437 437.5C437 599.54 525.093 741.005 656 816.615C591.706 853.75 517.085 875 437.5 875C195.875 875 0 679.125 0 437.5C0 195.875 195.875 0 437.5 0C517.085 0 591.706 21.2499 656 58.3852Z" fill="#2CB0C4"/>
<path fill-rule="evenodd" clip-rule="evenodd" d="M656 816.614C786.907 741.004 875 599.539 875 437.5C875 275.46 786.907 133.995 656 58.3848C525.093 133.995 437 275.46 437 437.5C437 599.539 525.093 741.004 656 816.614Z" fill="#66FFED"/>
<path fill-rule="evenodd" clip-rule="evenodd" d="M221.601 818.105C249.268 603.119 432.985 437 655.5 437C734.014 437 807.697 457.682 871.399 493.895C843.732 708.881 660.015 875 437.5 875C358.986 875 285.303 854.318 221.601 818.105Z" fill="#FFD200"/>
<path fill-rule="evenodd" clip-rule="evenodd" d="M440.533 493.366C504.021 457.481 577.369 437 655.5 437C878.198 437 1062.03 603.391 1089.47 818.634C1025.98 854.519 952.631 875 874.5 875C651.802 875 467.967 708.609 440.533 493.366Z" fill="#FF0055"/>
<path fill-rule="evenodd" clip-rule="evenodd" d="M871.399 493.895C853.627 631.99 771.469 749.921 656 816.615C540.383 749.836 458.163 631.689 440.533 493.366C504.021 457.481 577.369 437 655.5 437C734.013 437 807.697 457.682 871.399 493.895Z" fill="#FFFDFD"/>
<path d="M79.696 360V303.888H98.176C102.768 303.888 107.024 304.364 110.944 305.316C114.92 306.212 118.364 307.752 121.276 309.936C124.244 312.064 126.54 314.948 128.164 318.588C129.844 322.172 130.684 326.624 130.684 331.944C130.684 337.32 129.844 341.8 128.164 345.384C126.54 348.968 124.244 351.852 121.276 354.036C118.364 356.164 114.92 357.704 110.944 358.656C107.024 359.552 102.768 360 98.176 360H79.696ZM92.968 348.828H98.428C100.836 348.828 103.132 348.632 105.316 348.24C107.556 347.848 109.544 347.092 111.28 345.972C113.072 344.796 114.472 343.088 115.48 340.848C116.488 338.608 116.992 335.64 116.992 331.944C116.992 328.248 116.488 325.28 115.48 323.04C114.472 320.744 113.072 319.036 111.28 317.916C109.544 316.74 107.556 315.956 105.316 315.564C103.132 315.116 100.836 314.892 98.428 314.892H92.968V348.828ZM158.45 361.008C153.97 361.008 149.994 360.14 146.522 358.404C143.106 356.612 140.418 354.064 138.458 350.76C136.554 347.456 135.602 343.508 135.602 338.916C135.602 334.492 136.61 330.656 138.626 327.408C140.698 324.16 143.414 321.64 146.774 319.848C150.19 318.056 153.914 317.16 157.946 317.16C162.538 317.16 166.458 318.252 169.706 320.436C173.01 322.564 175.502 325.532 177.182 329.34C178.862 333.092 179.562 337.432 179.282 342.36H148.454C148.678 345.272 149.742 347.456 151.646 348.912C153.606 350.368 155.762 351.096 158.114 351.096C160.074 351.096 161.754 350.816 163.154 350.256C164.61 349.64 165.73 348.884 166.514 347.988L176.678 351.684C174.494 354.876 171.75 357.228 168.446 358.74C165.198 360.252 161.866 361.008 158.45 361.008ZM148.454 334.8H167.438C167.382 332.112 166.458 330.096 164.666 328.752C162.874 327.352 160.746 326.652 158.282 326.652C155.874 326.652 153.718 327.296 151.814 328.584C149.966 329.872 148.846 331.944 148.454 334.8ZM195.048 360L180.18 318.336H193.368L202.272 346.728L211.176 318.336H224.364L209.412 360H195.048ZM248.438 361.008C243.958 361.008 239.982 360.14 236.51 358.404C233.094 356.612 230.406 354.064 228.446 350.76C226.542 347.456 225.59 343.508 225.59 338.916C225.59 334.492 226.598 330.656 228.614 327.408C230.686 324.16 233.402 321.64 236.762 319.848C240.178 318.056 243.902 317.16 247.934 317.16C252.526 317.16 256.446 318.252 259.694 320.436C262.998 322.564 265.49 325.532 267.17 329.34C268.85 333.092 269.55 337.432 269.27 342.36H238.442C238.666 345.272 239.73 347.456 241.634 348.912C243.594 350.368 245.75 351.096 248.102 351.096C250.062 351.096 251.742 350.816 253.142 350.256C254.598 349.64 255.718 348.884 256.502 347.988L266.666 351.684C264.482 354.876 261.738 357.228 258.434 358.74C255.186 360.252 251.854 361.008 248.438 361.008ZM238.442 334.8H257.426C257.37 332.112 256.446 330.096 254.654 328.752C252.862 327.352 250.734 326.652 248.27 326.652C245.862 326.652 243.706 327.296 241.802 328.584C239.954 329.872 238.834 331.944 238.442 334.8ZM289.128 360C285.712 360 282.996 359.72 280.98 359.16C278.964 358.544 277.508 357.396 276.612 355.716C275.772 353.98 275.352 351.488 275.352 348.24V303.888H288.12V344.88C288.12 346.84 288.512 348.128 289.296 348.744C290.08 349.304 291.536 349.584 293.664 349.584H297.276V360H289.128ZM321.674 361.008C317.81 361.008 314.198 360.224 310.838 358.656C307.478 357.088 304.762 354.68 302.69 351.432C300.618 348.128 299.582 343.984 299.582 339C299.582 333.96 300.618 329.844 302.69 326.652C304.762 323.404 307.478 321.024 310.838 319.512C314.198 317.944 317.81 317.16 321.674 317.16C325.482 317.16 329.066 317.944 332.426 319.512C335.786 321.024 338.502 323.404 340.574 326.652C342.646 329.844 343.682 333.96 343.682 339C343.682 343.984 342.646 348.128 340.574 351.432C338.502 354.68 335.786 357.088 332.426 358.656C329.066 360.224 325.482 361.008 321.674 361.008ZM321.674 351.096C324.25 351.096 326.378 350.172 328.058 348.324C329.794 346.476 330.662 343.368 330.662 339C330.662 334.576 329.766 331.496 327.974 329.76C326.238 327.968 324.138 327.072 321.674 327.072C319.154 327.072 316.998 327.968 315.206 329.76C313.47 331.496 312.602 334.576 312.602 339C312.602 343.368 313.47 346.476 315.206 348.324C316.942 350.172 319.098 351.096 321.674 351.096ZM349.919 373.524V318.336H361.007L362.687 324.048C364.031 321.752 365.907 320.044 368.315 318.924C370.779 317.748 373.131 317.16 375.371 317.16C378.955 317.16 382.119 318.056 384.863 319.848C387.663 321.64 389.847 324.188 391.415 327.492C392.983 330.74 393.767 334.632 393.767 339.168C393.767 343.704 392.983 347.624 391.415 350.928C389.847 354.176 387.663 356.668 384.863 358.404C382.119 360.14 378.955 361.008 375.371 361.008C373.131 361.008 370.779 360.42 368.315 359.244C365.907 358.068 364.031 356.332 362.687 354.036V373.524H349.919ZM371.339 351.096C373.803 351.096 375.931 350.088 377.723 348.072C379.571 346.056 380.495 343.088 380.495 339.168C380.495 335.36 379.571 332.392 377.723 330.264C375.931 328.136 373.803 327.072 371.339 327.072C368.819 327.072 366.635 327.968 364.787 329.76C362.995 331.552 362.099 334.604 362.099 338.916C362.099 343.172 362.995 346.28 364.787 348.24C366.635 350.144 368.819 351.096 371.339 351.096Z" fill="#FFFDFD"/>
<path d="M939.696 360V303.888H958.176C962.768 303.888 967.024 304.364 970.944 305.316C974.92 306.212 978.364 307.752 981.276 309.936C984.244 312.064 986.54 314.948 988.164 318.588C989.844 322.172 990.684 326.624 990.684 331.944C990.684 337.32 989.844 341.8 988.164 345.384C986.54 348.968 984.244 351.852 981.276 354.036C978.364 356.164 974.92 357.704 970.944 358.656C967.024 359.552 962.768 360 958.176 360H939.696ZM952.968 348.828H958.428C960.836 348.828 963.132 348.632 965.316 348.24C967.556 347.848 969.544 347.092 971.28 345.972C973.072 344.796 974.472 343.088 975.48 340.848C976.488 338.608 976.992 335.64 976.992 331.944C976.992 328.248 976.488 325.28 975.48 323.04C974.472 320.744 973.072 319.036 971.28 317.916C969.544 316.74 967.556 315.956 965.316 315.564C963.132 315.116 960.836 314.892 958.428 314.892H952.968V348.828ZM1018.45 361.008C1013.97 361.008 1009.99 360.14 1006.52 358.404C1003.11 356.612 1000.42 354.064 998.458 350.76C996.554 347.456 995.602 343.508 995.602 338.916C995.602 334.492 996.61 330.656 998.626 327.408C1000.7 324.16 1003.41 321.64 1006.77 319.848C1010.19 318.056 1013.91 317.16 1017.95 317.16C1022.54 317.16 1026.46 318.252 1029.71 320.436C1033.01 322.564 1035.5 325.532 1037.18 329.34C1038.86 333.092 1039.56 337.432 1039.28 342.36H1008.45C1008.68 345.272 1009.74 347.456 1011.65 348.912C1013.61 350.368 1015.76 351.096 1018.11 351.096C1020.07 351.096 1021.75 350.816 1023.15 350.256C1024.61 349.64 1025.73 348.884 1026.51 347.988L1036.68 351.684C1034.49 354.876 1031.75 357.228 1028.45 358.74C1025.2 360.252 1021.87 361.008 1018.45 361.008ZM1008.45 334.8H1027.44C1027.38 332.112 1026.46 330.096 1024.67 328.752C1022.87 327.352 1020.75 326.652 1018.28 326.652C1015.87 326.652 1013.72 327.296 1011.81 328.584C1009.97 329.872 1008.85 331.944 1008.45 334.8ZM1063.34 361.008C1058.47 361.008 1054.24 360.112 1050.66 358.32C1047.13 356.528 1044.55 353.896 1042.93 350.424L1053.76 346.476C1054.38 348.212 1055.56 349.528 1057.29 350.424C1059.08 351.264 1061.18 351.684 1063.59 351.684C1065.66 351.684 1067.48 351.376 1069.05 350.76C1070.68 350.088 1071.49 349.108 1071.49 347.82C1071.49 346.924 1071.01 346.168 1070.06 345.552C1069.11 344.936 1067.43 344.432 1065.02 344.04L1057.54 342.78C1053.51 342.108 1050.24 340.736 1047.72 338.664C1045.2 336.592 1043.94 333.82 1043.94 330.348C1043.94 327.436 1044.8 325 1046.54 323.04C1048.33 321.08 1050.68 319.624 1053.6 318.672C1056.51 317.664 1059.67 317.16 1063.09 317.16C1067.06 317.16 1070.73 317.888 1074.09 319.344C1077.51 320.744 1080 323.096 1081.57 326.4L1070.82 330.348C1070.42 328.836 1069.5 327.828 1068.04 327.324C1066.59 326.764 1064.91 326.484 1063 326.484C1058.41 326.484 1056.12 327.604 1056.12 329.844C1056.12 330.684 1056.51 331.384 1057.29 331.944C1058.08 332.448 1059.39 332.868 1061.24 333.204L1068.97 334.632C1074.01 335.528 1077.73 336.844 1080.14 338.58C1082.55 340.316 1083.75 342.92 1083.75 346.392C1083.75 349.64 1082.83 352.356 1080.98 354.54C1079.13 356.724 1076.67 358.348 1073.59 359.412C1070.51 360.476 1067.09 361.008 1063.34 361.008ZM1101.43 311.448C1099.36 311.448 1097.57 310.72 1096.05 309.264C1094.6 307.752 1093.87 305.96 1093.87 303.888C1093.87 301.76 1094.6 299.968 1096.05 298.512C1097.57 297.056 1099.36 296.328 1101.43 296.328C1103.56 296.328 1105.35 297.056 1106.81 298.512C1108.26 299.968 1108.99 301.76 1108.99 303.888C1108.99 305.96 1108.26 307.752 1106.81 309.264C1105.35 310.72 1103.56 311.448 1101.43 311.448ZM1094.96 360V328.08H1087.07V318.336H1107.81V360H1094.96ZM1136.16 377.052C1133.86 377.052 1131.54 376.744 1129.19 376.128C1126.83 375.568 1124.65 374.56 1122.63 373.104C1120.62 371.648 1118.97 369.66 1117.68 367.14L1128.09 363.36C1128.88 364.872 1130 365.908 1131.45 366.468C1132.91 367.028 1134.37 367.308 1135.82 367.308C1138.51 367.308 1140.67 366.664 1142.29 365.376C1143.91 364.144 1144.73 362.156 1144.73 359.412V351.936C1142.93 354.176 1140.86 355.828 1138.51 356.892C1136.21 357.956 1133.89 358.488 1131.54 358.488C1128.51 358.488 1125.63 357.676 1122.89 356.052C1120.14 354.428 1117.9 352.104 1116.17 349.08C1114.43 346.056 1113.56 342.444 1113.56 338.244C1113.56 333.372 1114.43 329.396 1116.17 326.316C1117.9 323.18 1120.11 320.856 1122.8 319.344C1125.49 317.832 1128.26 317.076 1131.12 317.076C1133.75 317.076 1136.27 317.664 1138.68 318.84C1141.14 320.016 1143.16 321.752 1144.73 324.048L1146.41 318.336H1157.41V356.892C1157.41 363.836 1155.53 368.932 1151.78 372.18C1148.03 375.428 1142.82 377.052 1136.16 377.052ZM1136.07 348.576C1137.75 348.576 1139.27 348.268 1140.61 347.652C1142.01 346.98 1143.13 345.86 1143.97 344.292C1144.81 342.724 1145.23 340.596 1145.23 337.908C1145.23 333.82 1144.31 330.992 1142.46 329.424C1140.67 327.856 1138.54 327.072 1136.07 327.072C1133.55 327.072 1131.37 327.912 1129.52 329.592C1127.73 331.272 1126.83 333.932 1126.83 337.572C1126.83 341.268 1127.73 344.04 1129.52 345.888C1131.37 347.68 1133.55 348.576 1136.07 348.576ZM1165.87 360V318.336H1177.04L1178.64 323.88C1179.59 322.312 1181.16 320.8 1183.34 319.344C1185.58 317.888 1188.3 317.16 1191.49 317.16C1196.86 317.16 1200.53 318.672 1202.49 321.696C1204.51 324.664 1205.52 328.976 1205.52 334.632V360H1192.75V337.824C1192.75 335.864 1192.64 334.072 1192.41 332.448C1192.19 330.824 1191.63 329.536 1190.73 328.584C1189.89 327.576 1188.44 327.072 1186.36 327.072C1183.68 327.072 1181.72 328.052 1180.48 330.012C1179.25 331.916 1178.64 334.772 1178.64 338.58V360H1165.87Z" fill="#FFFDFD"/>
<path d="M432.068 1155.13C425.551 1155.13 419.942 1153.81 415.242 1151.18C410.542 1148.55 406.939 1144.79 404.432 1139.9C401.925 1135.01 400.672 1129.25 400.672 1122.6C400.672 1115.96 401.957 1110.23 404.526 1105.4C407.158 1100.51 410.855 1096.75 415.618 1094.12C420.381 1091.43 425.989 1090.08 432.444 1090.08C438.397 1090.08 443.567 1091.4 447.954 1094.03C452.403 1096.66 455.819 1100.2 458.2 1104.65L445.04 1109.44C443.661 1106.87 441.781 1105.06 439.4 1103.99C437.019 1102.86 434.543 1102.3 431.974 1102.3C429.091 1102.3 426.459 1103.11 424.078 1104.74C421.697 1106.31 419.817 1108.63 418.438 1111.7C417.059 1114.71 416.37 1118.34 416.37 1122.6C416.37 1129.18 417.874 1134.23 420.882 1137.74C423.953 1141.18 427.713 1142.91 432.162 1142.91C434.543 1142.91 436.987 1142.41 439.494 1141.4C442.063 1140.4 444.069 1138.55 445.51 1135.86L458.576 1140.65C456.069 1145.1 452.497 1148.64 447.86 1151.27C443.285 1153.84 438.021 1155.13 432.068 1155.13ZM486.047 1155.13C481.723 1155.13 477.681 1154.25 473.921 1152.5C470.161 1150.74 467.122 1148.05 464.803 1144.41C462.485 1140.71 461.325 1136.08 461.325 1130.5C461.325 1124.86 462.485 1120.25 464.803 1116.68C467.122 1113.05 470.161 1110.38 473.921 1108.69C477.681 1106.94 481.723 1106.06 486.047 1106.06C490.309 1106.06 494.319 1106.94 498.079 1108.69C501.839 1110.38 504.879 1113.05 507.197 1116.68C509.516 1120.25 510.675 1124.86 510.675 1130.5C510.675 1136.08 509.516 1140.71 507.197 1144.41C504.879 1148.05 501.839 1150.74 498.079 1152.5C494.319 1154.25 490.309 1155.13 486.047 1155.13ZM486.047 1144.04C488.93 1144.04 491.311 1143 493.191 1140.93C495.134 1138.87 496.105 1135.39 496.105 1130.5C496.105 1125.55 495.103 1122.1 493.097 1120.16C491.155 1118.15 488.805 1117.15 486.047 1117.15C483.227 1117.15 480.815 1118.15 478.809 1120.16C476.867 1122.1 475.895 1125.55 475.895 1130.5C475.895 1135.39 476.867 1138.87 478.809 1140.93C480.752 1143 483.165 1144.04 486.047 1144.04ZM533.07 1154C529.247 1154 526.208 1153.69 523.952 1153.06C521.696 1152.37 520.067 1151.09 519.064 1149.21C518.124 1147.26 517.654 1144.47 517.654 1140.84V1091.21H531.942V1137.08C531.942 1139.27 532.381 1140.71 533.258 1141.4C534.135 1142.03 535.765 1142.34 538.146 1142.34H542.188V1154H533.07ZM562.629 1154C558.806 1154 555.767 1153.69 553.511 1153.06C551.255 1152.37 549.625 1151.09 548.623 1149.21C547.683 1147.26 547.213 1144.47 547.213 1140.84V1091.21H561.501V1137.08C561.501 1139.27 561.939 1140.71 562.817 1141.4C563.694 1142.03 565.323 1142.34 567.705 1142.34H571.747V1154H562.629ZM592.513 1155.13C589.567 1155.13 586.873 1154.56 584.429 1153.44C581.985 1152.31 580.042 1150.74 578.601 1148.74C577.159 1146.67 576.439 1144.22 576.439 1141.4C576.439 1137.58 577.755 1134.54 580.387 1132.29C583.081 1130.03 586.747 1128.34 591.385 1127.21C596.022 1126.08 601.349 1125.3 607.365 1124.86C607.365 1121.54 606.832 1119.19 605.767 1117.81C604.701 1116.43 602.633 1115.74 599.563 1115.74C597.62 1115.74 595.897 1116.21 594.393 1117.15C592.951 1118.03 591.98 1119.41 591.479 1121.29L579.447 1116.96C581.013 1113.83 583.614 1111.23 587.249 1109.16C590.946 1107.09 595.458 1106.06 600.785 1106.06C607.427 1106.06 612.535 1107.53 616.107 1110.48C619.679 1113.42 621.465 1118.44 621.465 1125.52V1135.76C621.465 1137.77 621.527 1139.93 621.653 1142.25C621.778 1144.57 621.966 1146.76 622.217 1148.83C622.467 1150.9 622.749 1152.62 623.063 1154H609.809L608.117 1148.36C606.362 1150.8 604.137 1152.56 601.443 1153.62C598.811 1154.63 595.834 1155.13 592.513 1155.13ZM597.777 1145.35C600.597 1145.35 602.947 1144.6 604.827 1143.1C606.707 1141.59 607.647 1138.71 607.647 1134.45V1133.32C602.696 1133.76 598.717 1134.45 595.709 1135.39C592.701 1136.27 591.197 1137.93 591.197 1140.37C591.197 1141.87 591.823 1143.1 593.077 1144.04C594.33 1144.91 595.897 1145.35 597.777 1145.35ZM659.322 1155.13C656.815 1155.13 654.183 1154.53 651.426 1153.34C648.731 1152.15 646.632 1150.27 645.128 1147.7L643.342 1154H630.84V1091.21H645.128V1113.77C646.632 1111.2 648.731 1109.29 651.426 1108.03C654.183 1106.72 656.815 1106.06 659.322 1106.06C663.332 1106.06 666.873 1107.03 669.944 1108.97C673.077 1110.92 675.521 1113.71 677.276 1117.34C679.03 1120.91 679.908 1125.24 679.908 1130.31C679.908 1135.39 679.03 1139.81 677.276 1143.57C675.521 1147.26 673.077 1150.11 669.944 1152.12C666.873 1154.13 663.332 1155.13 659.322 1155.13ZM654.81 1144.04C657.567 1144.04 659.948 1142.85 661.954 1140.46C664.022 1138.02 665.056 1134.64 665.056 1130.31C665.056 1126.05 664.022 1122.79 661.954 1120.54C659.948 1118.28 657.567 1117.15 654.81 1117.15C651.99 1117.15 649.546 1118.22 647.478 1120.35C645.472 1122.42 644.47 1125.83 644.47 1130.59C644.47 1135.42 645.472 1138.87 647.478 1140.93C649.546 1143 651.99 1144.04 654.81 1144.04ZM709.114 1155.13C704.79 1155.13 700.748 1154.25 696.988 1152.5C693.228 1150.74 690.188 1148.05 687.87 1144.41C685.551 1140.71 684.392 1136.08 684.392 1130.5C684.392 1124.86 685.551 1120.25 687.87 1116.68C690.188 1113.05 693.228 1110.38 696.988 1108.69C700.748 1106.94 704.79 1106.06 709.114 1106.06C713.375 1106.06 717.386 1106.94 721.146 1108.69C724.906 1110.38 727.945 1113.05 730.264 1116.68C732.582 1120.25 733.742 1124.86 733.742 1130.5C733.742 1136.08 732.582 1140.71 730.264 1144.41C727.945 1148.05 724.906 1150.74 721.146 1152.5C717.386 1154.25 713.375 1155.13 709.114 1155.13ZM709.114 1144.04C711.996 1144.04 714.378 1143 716.258 1140.93C718.2 1138.87 719.172 1135.39 719.172 1130.5C719.172 1125.55 718.169 1122.1 716.164 1120.16C714.221 1118.15 711.871 1117.15 709.114 1117.15C706.294 1117.15 703.881 1118.15 701.876 1120.16C699.933 1122.1 698.962 1125.55 698.962 1130.5C698.962 1135.39 699.933 1138.87 701.876 1140.93C703.818 1143 706.231 1144.04 709.114 1144.04ZM740.721 1154V1107.38H752.001L754.539 1115.93C755.98 1112.17 757.954 1109.54 760.461 1108.03C762.967 1106.53 766.007 1105.87 769.579 1106.06V1120.35C768.827 1120.22 768.169 1120.16 767.605 1120.16C767.041 1120.1 766.414 1120.07 765.725 1120.07C762.278 1120.07 759.615 1120.88 757.735 1122.51C755.917 1124.14 755.009 1126.8 755.009 1130.5V1154H740.721ZM788.132 1155.13C785.186 1155.13 782.492 1154.56 780.048 1153.44C777.604 1152.31 775.661 1150.74 774.22 1148.74C772.778 1146.67 772.058 1144.22 772.058 1141.4C772.058 1137.58 773.374 1134.54 776.006 1132.29C778.7 1130.03 782.366 1128.34 787.004 1127.21C791.641 1126.08 796.968 1125.3 802.984 1124.86C802.984 1121.54 802.451 1119.19 801.386 1117.81C800.32 1116.43 798.252 1115.74 795.182 1115.74C793.239 1115.74 791.516 1116.21 790.012 1117.15C788.57 1118.03 787.599 1119.41 787.098 1121.29L775.066 1116.96C776.632 1113.83 779.233 1111.23 782.868 1109.16C786.565 1107.09 791.077 1106.06 796.404 1106.06C803.046 1106.06 808.154 1107.53 811.726 1110.48C815.298 1113.42 817.084 1118.44 817.084 1125.52V1135.76C817.084 1137.77 817.146 1139.93 817.272 1142.25C817.397 1144.57 817.585 1146.76 817.836 1148.83C818.086 1150.9 818.368 1152.62 818.682 1154H805.428L803.736 1148.36C801.981 1150.8 799.756 1152.56 797.062 1153.62C794.43 1154.63 791.453 1155.13 788.132 1155.13ZM793.396 1145.35C796.216 1145.35 798.566 1144.6 800.446 1143.1C802.326 1141.59 803.266 1138.71 803.266 1134.45V1133.32C798.315 1133.76 794.336 1134.45 791.328 1135.39C788.32 1136.27 786.816 1137.93 786.816 1140.37C786.816 1141.87 787.442 1143.1 788.696 1144.04C789.949 1144.91 791.516 1145.35 793.396 1145.35ZM846.105 1154C842.282 1154 839.243 1153.69 836.987 1153.06C834.731 1152.37 833.101 1151.09 832.099 1149.21C831.159 1147.26 830.689 1144.47 830.689 1140.84V1118.28H822.981V1107.38H830.689V1095.72H844.977V1107.38H855.129V1118.28H844.977V1137.08C844.977 1139.27 845.384 1140.71 846.199 1141.4C847.076 1142.03 848.674 1142.34 850.993 1142.34H855.129V1154H846.105ZM885.2 1155.13C880.187 1155.13 875.737 1154.16 871.852 1152.21C868.029 1150.21 865.021 1147.36 862.828 1143.66C860.697 1139.96 859.632 1135.54 859.632 1130.41C859.632 1125.46 860.76 1121.16 863.016 1117.53C865.335 1113.89 868.374 1111.07 872.134 1109.07C875.957 1107.06 880.124 1106.06 884.636 1106.06C889.775 1106.06 894.161 1107.28 897.796 1109.73C901.493 1112.11 904.282 1115.43 906.162 1119.69C908.042 1123.89 908.825 1128.75 908.512 1134.26H874.014C874.265 1137.52 875.455 1139.96 877.586 1141.59C879.779 1143.22 882.192 1144.04 884.824 1144.04C887.017 1144.04 888.897 1143.72 890.464 1143.1C892.093 1142.41 893.347 1141.56 894.224 1140.56L905.598 1144.69C903.154 1148.27 900.083 1150.9 896.386 1152.59C892.751 1154.28 889.023 1155.13 885.2 1155.13ZM874.014 1125.8H895.258C895.195 1122.79 894.161 1120.54 892.156 1119.03C890.151 1117.47 887.769 1116.68 885.012 1116.68C882.317 1116.68 879.905 1117.4 877.774 1118.84C875.706 1120.29 874.453 1122.6 874.014 1125.8Z" fill="#FFFDFD"/>
<g style="mix-blend-mode:soft-light" opacity="0.9">
<path d="M656 900C585.858 900 529 956.858 529 1027C529 1097.14 585.858 1154 656 1154C726.142 1154 783 1097.14 783 1027C783 956.858 726.142 900 656 900ZM698.14 1083.13C696.143 1085.11 694.049 1087.2 692.349 1088.9C690.817 1090.44 689.737 1092.33 689.189 1094.39C688.416 1097.29 687.791 1100.21 686.746 1103.03L677.841 1127.02C670.794 1128.55 663.502 1129.42 656 1129.42V1115.4C656.865 1108.94 652.088 1096.83 644.411 1089.15C641.339 1086.08 639.613 1081.91 639.613 1077.56V1061.17C639.613 1055.21 636.402 1049.73 631.184 1046.85C623.825 1042.78 613.358 1037.09 606.188 1033.48C600.309 1030.52 594.871 1026.75 589.98 1022.34L589.571 1021.97C586.074 1018.81 582.968 1015.25 580.322 1011.35C575.519 1004.3 567.694 992.7 562.609 985.162C573.092 961.861 591.983 943.149 615.457 932.984L627.753 939.134C633.201 941.859 639.613 937.9 639.613 931.806V926.02C643.705 925.359 647.868 924.939 652.103 924.78L666.595 939.273C669.796 942.473 669.796 947.661 666.595 950.861L664.194 953.258L658.898 958.553C657.301 960.151 657.301 962.747 658.898 964.345L661.3 966.747C662.898 968.344 662.898 970.941 661.3 972.539L657.203 976.635C656.434 977.403 655.392 977.834 654.305 977.834H649.701C648.636 977.834 647.612 978.248 646.844 978.996L641.764 983.938C641.141 984.544 640.727 985.333 640.582 986.19C640.436 987.047 640.567 987.928 640.955 988.705L648.938 1004.68C650.3 1007.4 648.319 1010.61 645.277 1010.61H642.388C641.4 1010.61 640.448 1010.25 639.705 1009.6L634.953 1005.48C633.877 1004.54 632.578 1003.91 631.181 1003.63C629.785 1003.35 628.341 1003.44 626.99 1003.89L611.028 1009.21C609.809 1009.62 608.749 1010.4 607.998 1011.44C607.247 1012.48 606.843 1013.73 606.844 1015.02C606.844 1017.34 608.155 1019.45 610.229 1020.49L615.903 1023.33C620.722 1025.74 626.037 1026.99 631.424 1026.99C636.812 1026.99 642.993 1040.97 647.812 1043.38H681.994C686.342 1043.38 690.505 1045.11 693.583 1048.18L700.593 1055.19C703.522 1058.12 705.167 1062.09 705.166 1066.24C705.165 1069.38 704.544 1072.48 703.338 1075.38C702.133 1078.28 700.366 1080.91 698.14 1083.13V1083.13ZM742.544 1036.35C739.579 1035.6 736.993 1033.79 735.298 1031.24L726.091 1017.43C724.743 1015.41 724.024 1013.04 724.024 1010.61C724.024 1008.19 724.743 1005.81 726.091 1003.8L736.123 988.751C737.311 986.975 738.939 985.53 740.854 984.578L747.501 981.254C754.425 995.04 758.419 1010.55 758.419 1027C758.419 1031.44 758.04 1035.79 757.487 1040.08L742.544 1036.35Z" fill="#FFFDFD"/>
</g>
<g clip-path="url(#clip1_1411_2340)">
<path d="M656 577C657.852 577 659.79 578.012 661.814 580.035C663.321 581.542 664.075 583.887 664.075 587.07C664.075 587.372 663.967 588.19 663.75 589.522L658.711 620.372L677.058 595.008C677.963 593.759 678.458 593.114 678.544 593.072C680.784 590.791 682.98 589.65 685.134 589.65C687.976 589.65 690.065 590.317 691.4 591.652C692.692 592.943 693.338 595.03 693.338 597.913C693.338 600.28 692.218 602.475 689.979 604.496C689.548 604.882 688.794 605.463 687.718 606.24L662.587 624.247L693.532 619.213C694.609 619.047 695.405 618.963 695.922 618.963C699.195 618.963 701.564 619.695 703.028 621.157C705.009 623.136 706 625.072 706 626.966C706 628.858 705.009 630.794 703.028 632.774C701.478 634.323 699.109 635.097 695.922 635.097C695.621 635.097 694.673 634.972 693.08 634.722L662.587 629.753L688.041 648.018C689.247 648.964 689.893 649.46 689.979 649.504C692.218 651.785 693.338 653.98 693.338 656.087C693.338 658.97 692.692 661.057 691.4 662.348C690.065 663.683 687.976 664.35 685.134 664.35C683.282 664.35 681.085 663.209 678.544 660.928C678.114 660.539 677.511 659.808 676.735 658.734L658.711 633.628L663.75 664.478C663.967 665.813 664.075 666.63 664.075 666.93C664.075 670.114 663.321 672.459 661.814 673.965C659.79 675.988 657.852 677 656 677C654.148 677 652.21 675.988 650.186 673.965C648.678 672.458 647.925 670.113 647.925 666.93C647.925 666.328 648.033 665.381 648.25 664.091L653.289 633.628L635.264 658.734C634.489 659.808 633.886 660.539 633.456 660.928C631.216 663.209 629.02 664.35 626.866 664.35C624.024 664.35 621.935 663.683 620.6 662.348C619.308 661.057 618.662 658.97 618.662 656.087C618.662 652.817 619.782 650.623 622.021 649.504C622.107 649.449 622.753 648.953 623.959 648.018L649.413 629.753L618.92 634.722C617.327 634.972 616.379 635.097 616.078 635.097C612.891 635.097 610.522 634.323 608.972 632.774C606.991 630.795 606 628.859 606 626.966C606 625.073 606.991 623.137 608.972 621.157C610.436 619.695 612.805 618.963 616.078 618.963C616.595 618.963 617.391 619.047 618.468 619.213L649.413 624.247L624.282 606.24C623.206 605.466 622.452 604.884 622.021 604.496C619.782 602.215 618.662 600.02 618.662 597.913C618.662 595.03 619.308 592.943 620.6 591.652C621.935 590.317 624.024 589.65 626.866 589.65C628.417 590.51 630.613 591.651 633.456 593.072C633.542 593.128 634.037 593.773 634.942 595.008L653.289 620.372L648.25 589.909C648.033 588.618 647.925 587.672 647.925 587.07C647.925 583.886 648.679 581.541 650.186 580.035C652.167 578.012 654.105 577 656 577H656Z" fill="#343E3D"/>
</g>
<g style="mix-blend-mode:soft-light" opacity="0.5" clip-path="url(#clip2_1411_2340)">
<path d="M1027.72 444.347C1027.73 447.91 1028.78 451.399 1030.76 454.367L1040.44 468.918C1042.09 471.405 1044.33 473.445 1046.97 474.856C1049.6 476.268 1052.54 477.006 1055.53 477.006H1090.48C1093.47 477.006 1096.41 476.268 1099.04 474.856C1101.67 473.445 1103.91 471.405 1105.57 468.918L1115.25 454.367C1117.22 451.398 1118.28 447.913 1118.28 444.347L1118.31 422.625H1027.69L1027.72 444.347ZM973.312 286.688C973.312 311.819 982.63 334.748 997.985 352.266C1007.34 362.943 1021.98 385.248 1027.56 404.064C1027.58 404.212 1027.6 404.359 1027.62 404.506H1118.38C1118.4 404.359 1118.42 404.217 1118.44 404.064C1124.02 385.248 1138.66 362.943 1148.01 352.266C1163.37 334.748 1172.69 311.819 1172.69 286.688C1172.69 231.526 1127.89 186.831 1072.69 187C1014.91 187.176 973.312 233.995 973.312 286.688ZM1073 241.375C1048.02 241.375 1027.69 261.704 1027.69 286.688C1027.69 291.695 1023.63 295.75 1018.62 295.75C1013.62 295.75 1009.56 291.695 1009.56 286.688C1009.56 251.707 1038.02 223.25 1073 223.25C1078.01 223.25 1082.06 227.306 1082.06 232.313C1082.06 237.32 1078.01 241.375 1073 241.375Z" fill="#FFFDFD"/>
</g>
<g style="mix-blend-mode:soft-light" opacity="0.5">
<path d="M308.068 303.012L304.416 309.38C303.08 311.741 300.229 312.72 297.691 311.785C292.436 309.826 287.626 307.02 283.395 303.502C281.347 301.809 280.812 298.825 282.148 296.51L285.8 290.141C282.727 286.578 280.322 282.437 278.719 277.938H271.371C268.699 277.938 266.383 276.023 265.938 273.351C265.047 268.007 265.002 262.396 265.938 256.829C266.383 254.157 268.699 252.197 271.371 252.197H278.719C280.322 247.699 282.727 243.558 285.8 239.995L282.148 233.626C280.812 231.31 281.302 228.327 283.395 226.634C287.626 223.116 292.48 220.31 297.691 218.351C300.229 217.416 303.08 218.395 304.416 220.756L308.068 227.124C312.744 226.278 317.509 226.278 322.185 227.124L325.837 220.756C327.173 218.395 330.023 217.416 332.562 218.351C337.817 220.31 342.627 223.116 346.857 226.634C348.906 228.327 349.44 231.31 348.104 233.626L344.453 239.995C347.525 243.558 349.93 247.699 351.534 252.197H358.882C361.554 252.197 363.87 254.112 364.315 256.784C365.206 262.129 365.25 267.74 364.315 273.307C363.87 275.979 361.554 277.938 358.882 277.938H351.534C349.93 282.437 347.525 286.578 344.453 290.141L348.104 296.51C349.44 298.825 348.951 301.809 346.857 303.502C342.627 307.02 337.772 309.826 332.562 311.785C330.023 312.72 327.173 311.741 325.837 309.38L322.185 303.012C317.553 303.858 312.744 303.858 308.068 303.012ZM303.391 276.825C320.537 290.007 340.088 270.457 326.906 253.311C309.76 240.084 290.209 259.679 303.391 276.825ZM252.043 345.364L267.051 352.846C271.549 355.429 273.508 360.907 271.727 365.806C267.763 376.583 259.97 386.47 252.755 395.11C249.46 399.073 243.759 400.053 239.261 397.47L226.301 389.988C219.176 396.09 210.892 400.944 201.852 404.106V419.07C201.852 424.236 198.155 428.689 193.078 429.58C182.123 431.45 170.633 431.539 159.276 429.58C154.155 428.689 150.369 424.28 150.369 419.07V404.106C141.329 400.899 133.045 396.09 125.92 389.988L112.96 397.426C108.507 400.009 102.762 399.029 99.4659 395.065C92.2513 386.426 84.6358 376.539 80.6722 365.806C78.8908 360.952 80.8503 355.474 85.3484 352.846L100.179 345.364C98.4416 336.057 98.4416 326.482 100.179 317.129L85.3484 309.603C80.8503 307.02 78.8463 301.542 80.6722 296.688C84.6358 285.91 92.2513 276.023 99.4659 267.384C102.762 263.42 108.462 262.44 112.96 265.023L125.92 272.505C133.045 266.404 141.329 261.55 150.369 258.388V243.379C150.369 238.258 154.021 233.804 159.098 232.914C170.054 231.043 181.588 230.954 192.945 232.869C198.066 233.76 201.852 238.169 201.852 243.379V258.343C210.892 261.55 219.176 266.359 226.301 272.461L239.261 264.979C243.715 262.396 249.46 263.376 252.755 267.339C259.97 275.979 267.541 285.866 271.504 296.643C273.286 301.497 271.549 306.975 267.051 309.603L252.043 317.085C253.779 326.437 253.779 336.012 252.043 345.364ZM199.67 354.761C226.034 320.469 186.888 281.323 152.596 307.688C126.231 341.98 165.378 381.126 199.67 354.761ZM308.068 436.127L304.416 442.495C303.08 444.855 300.229 445.835 297.691 444.9C292.436 442.94 287.626 440.135 283.395 436.616C281.347 434.924 280.812 431.94 282.148 429.624L285.8 423.256C282.727 419.693 280.322 415.551 278.719 411.053H271.371C268.699 411.053 266.383 409.138 265.938 406.466C265.047 401.122 265.002 395.511 265.938 389.944C266.383 387.272 268.699 385.312 271.371 385.312H278.719C280.322 380.814 282.727 376.672 285.8 373.11L282.148 366.741C280.812 364.425 281.302 361.441 283.395 359.749C287.626 356.231 292.48 353.425 297.691 351.466C300.229 350.53 303.08 351.51 304.416 353.871L308.068 360.239C312.744 359.393 317.509 359.393 322.185 360.239L325.837 353.871C327.173 351.51 330.023 350.53 332.562 351.466C337.817 353.425 342.627 356.231 346.857 359.749C348.906 361.441 349.44 364.425 348.104 366.741L344.453 373.11C347.525 376.672 349.93 380.814 351.534 385.312H358.882C361.554 385.312 363.87 387.227 364.315 389.899C365.206 395.243 365.25 400.855 364.315 406.422C363.87 409.094 361.554 411.053 358.882 411.053H351.534C349.93 415.551 347.525 419.693 344.453 423.256L348.104 429.624C349.44 431.94 348.951 434.924 346.857 436.616C342.627 440.135 337.772 442.94 332.562 444.9C330.023 445.835 327.173 444.855 325.837 442.495L322.185 436.127C317.553 436.973 312.744 436.973 308.068 436.127ZM303.391 409.895C320.537 423.078 340.088 403.527 326.906 386.381C309.76 373.199 290.209 392.75 303.391 409.895Z" fill="#FFFDFD"/>
</g>
</g>
<defs>
<clipPath id="clip0_1411_2340">
<rect width="1312" height="1312" fill="white"/>
</clipPath>
<clipPath id="clip1_1411_2340">
<rect width="100" height="100" fill="white" transform="translate(606 577)"/>
</clipPath>
<clipPath id="clip2_1411_2340">
<rect width="290" height="290" fill="white" transform="translate(928 187)"/>
</clipPath>
</defs>
</svg>
